<?xml version="1.0" encoding="UTF-8" standalone="no"?>
<!-- Generator: Adobe Illustrator 28.0.0, SVG Export Plug-In . SVG Version: 6.00 Build 0)  -->

<svg
   version="1.1"
   id="katman_1"
   x="0px"
   y="0px"
   viewBox="0 0 700247.39 554166.86"
   xml:space="preserve"
   width="700247.38"
   height="554166.88"
   xmlns="http://www.w3.org/2000/svg"
   xmlns:svg="http://www.w3.org/2000/svg"><defs
   id="defs3" />
<style
   type="text/css"
   id="style1">
	.st0{fill:none;}
	.st1{fill:none;stroke:#949494;stroke-width:4;stroke-miterlimit:10;}
	.st2{fill:#B2B2B2;}
	.st3{font-family:'CopperplateGothic-Light';}
	.st4{font-size:62px;}
	.st5{letter-spacing:6;}
</style>
<line
   class="st0"
   x1="-357429.97"
   y1="-60612.906"
   x2="-357430.06"
   y2="-60613.406"
   id="line1" />
<polygon
   class="st1"
   points="647.7,598.7 627.9,647.6 608.2,696.5 601.8,712.1 596.5,725.4 584.8,696.5 565,647.6 552.9,617.5 545.3,598.7 531.6,564.9 525.5,549.8 505.8,500.9 504,496.5 486,452 480.2,437.5 474.4,452 455.1,499.6 454.6,500.9 434.8,549.8 303.9,549.8 308.4,538.8 323.7,500.9 343.5,452 357.3,417.8 363.2,403.1 383,354.1 402.7,305.2 406.2,296.8 414.7,275.6 422.5,256.3 442.3,207.4 455.1,175.6 462,158.5 479.4,115.6 496.7,158.5 504,176.6 516.4,207.4 536.2,256.3 544.8,277.6 552.9,297.7 556,305.2 575.7,354.1 595.5,403.1 596.3,405 601.8,418.8 615.3,452 635,500.9 650.7,539.8 654.8,549.8 661.1,565.5 650.7,591.1 "
   id="polygon1"
   style="stroke:#e5e5e5;stroke-opacity:1"
   transform="translate(-358276.46,-61064.908)" />
<polygon
   class="st1"
   points="748.6,517.9 741.7,500.9 721.9,452 714.4,433.5 702.2,403.1 699.6,396.8 682.4,354.1 662.6,305.2 650.7,275.8 650.7,270.2 656.3,256.3 676.1,207.4 695.8,158.5 699.6,149.1 711.9,118.7 728,158.5 747.7,207.4 748.6,209.4 767.5,256.3 776.7,279.2 787.3,305.2 797.5,330.5 807,354.1 826.8,403.1 846.4,451.5 846.4,452 846.5,452 866.3,500.9 886.1,549.8 761.4,549.8 "
   id="polygon2"
   style="stroke:#e5e5e5;stroke-opacity:1"
   transform="translate(-358276.46,-61064.908)" />
<rect
   x="-308914"
   y="-190547.11"
   transform="rotate(-21.999303)"
   class="st0"
   width="98.901237"
   height="493.20618"
   id="rect2"
   style="stroke-width:1.00001" />
<text
   transform="rotate(68.000697)"
   class="st2 st3 st4 st5"
   id="text2"
   style="font-style:normal;font-variant:normal;font-weight:normal;font-stretch:normal;font-size:62.0008px;font-family:'Copperplate Gothic Bold';-inkscape-font-specification:'Copperplate Gothic Bold, Normal';font-variant-ligatures:normal;font-variant-caps:normal;font-variant-numeric:normal;font-variant-east-asian:normal;letter-spacing:6.00007;fill:#e5e5e5;fill-opacity:1;stroke-width:1.00001"
   x="-190532.98"
   y="308890.28">INNOVATION</text>

</svg>
