<svg width="137" height="38" viewBox="0 0 137 38" fill="none" xmlns="http://www.w3.org/2000/svg">
<path d="M32.3333 2H9.66667C6.53705 2 4 4.46243 4 7.5V29.5C4 32.5376 6.53705 35 9.66667 35H32.3333C35.4629 35 38 32.5376 38 29.5V7.5C38 4.46243 35.4629 2 32.3333 2Z" fill="#C1C2D3"/>
<path d="M18.876 16.438H15.4973C14.8371 16.4325 14.1932 16.2379 13.6466 15.8785C13.1 15.5191 12.675 15.0109 12.4249 14.4179C12.1748 13.8248 12.1109 13.1733 12.2411 12.545C12.3712 11.9168 12.6898 11.3399 13.1566 10.8868C13.6235 10.4337 14.2178 10.1245 14.8651 9.99817C15.5124 9.87182 16.1837 9.93389 16.7947 10.1766C17.4057 10.4193 17.9293 10.8318 18.2996 11.3624C18.6699 11.8929 18.8704 12.5178 18.876 13.1586V16.438ZM15.5256 11.0961C14.9545 11.0961 14.4068 11.3163 14.003 11.7082C13.5991 12.1002 13.3723 12.6318 13.3723 13.1861C13.3723 13.7404 13.5991 14.272 14.003 14.6639C14.4068 15.0559 14.9545 15.2761 15.5256 15.2761H17.6506V13.2136C17.6622 12.9335 17.6148 12.6541 17.5114 12.3925C17.4081 12.1308 17.2508 11.8923 17.0493 11.6915C16.8478 11.4908 16.6062 11.332 16.3394 11.2249C16.0725 11.1178 15.786 11.0646 15.4973 11.0686L15.5256 11.0961Z" fill="#0B0B0B" stroke="#0B0B0B" stroke-width="0.4"/>
<path d="M26.5038 16.438H23.125V13.1586C23.1306 12.5178 23.3311 11.8929 23.7014 11.3624C24.0717 10.8318 24.5953 10.4193 25.2063 10.1766C25.8173 9.93389 26.4886 9.87182 27.1359 9.99817C27.7832 10.1245 28.3775 10.4337 28.8444 10.8868C29.3112 11.3399 29.6298 11.9168 29.7599 12.545C29.8901 13.1733 29.8262 13.8248 29.5761 14.4179C29.326 15.0109 28.901 15.5191 28.3544 15.8785C27.8078 16.2379 27.164 16.4325 26.5038 16.438ZM24.3788 15.2761H26.5038C26.7868 15.2777 27.0673 15.2244 27.3288 15.1193C27.5903 15.0142 27.8276 14.8595 28.0267 14.6642C28.2279 14.471 28.3873 14.2407 28.4955 13.9869C28.6038 13.7331 28.6587 13.4608 28.6571 13.1861C28.6571 12.6318 28.4302 12.1002 28.0264 11.7082C27.6226 11.3163 27.0749 11.0961 26.5038 11.0961C25.9327 11.0961 25.3849 11.3163 24.9811 11.7082C24.5773 12.1002 24.3504 12.6318 24.3504 13.1861L24.3788 15.2761Z" fill="#0B0B0B" stroke="#0B0B0B" stroke-width="0.4"/>
<path d="M23.7484 15.249H18.2446V16.4109H23.7484V15.249Z" fill="#0B0B0B" stroke="#0B0B0B" stroke-width="0.4"/>
<path d="M24.3499 15.8252H23.1528V21.1671H24.3499V15.8252Z" fill="#0B0B0B" stroke="#0B0B0B" stroke-width="0.4"/>
<path d="M23.7484 20.5891H18.2446V21.751H23.7484V20.5891Z" fill="#0B0B0B" stroke="#0B0B0B" stroke-width="0.4"/>
<path d="M18.847 15.8252H17.6499V21.1671H18.847V15.8252Z" fill="#0B0B0B" stroke="#0B0B0B" stroke-width="0.4"/>
<path d="M15.4954 27.0929C14.6069 27.0929 13.7547 26.7503 13.1263 26.1404C12.498 25.5306 12.145 24.7034 12.145 23.841C12.145 22.9785 12.498 22.1514 13.1263 21.5416C13.7547 20.9317 14.6069 20.5891 15.4954 20.5891H18.8742V23.841C18.8742 24.2704 18.7866 24.6955 18.6165 25.0918C18.4463 25.4881 18.197 25.8479 17.8829 26.1502C17.5688 26.4525 17.1961 26.6915 16.7863 26.8533C16.3765 27.0151 15.9378 27.0965 15.4954 27.0929ZM15.4954 21.751C15.0752 21.751 14.6643 21.8719 14.3149 22.0986C13.9654 22.3252 13.693 22.6473 13.5322 23.0242C13.3714 23.4011 13.3293 23.8158 13.4113 24.2159C13.4933 24.6159 13.6956 24.9834 13.9928 25.2719C14.29 25.5603 14.6687 25.7568 15.0809 25.8364C15.4931 25.9159 15.9203 25.8751 16.3086 25.719C16.6969 25.5629 17.0288 25.2985 17.2623 24.9593C17.4958 24.6202 17.6204 24.2214 17.6204 23.8135V21.751H15.4954Z" fill="#0B0B0B" stroke="#0B0B0B" stroke-width="0.4"/>
<path d="M26.5037 27.0937C26.0614 27.0974 25.6227 27.0159 25.2129 26.8542C24.8031 26.6924 24.4304 26.4534 24.1163 26.1511C23.8022 25.8487 23.5529 25.489 23.3827 25.0927C23.2126 24.6964 23.125 24.2712 23.125 23.8419V20.5625H26.4754C27.364 20.5625 28.2162 20.9051 28.8445 21.515C29.4728 22.1248 29.8258 22.9519 29.8258 23.8144C29.8258 24.6768 29.4728 25.504 28.8445 26.1138C28.2162 26.7236 27.364 27.0662 26.4754 27.0662L26.5037 27.0937ZM24.3788 21.7519V23.8144C24.3771 24.0891 24.432 24.3613 24.5403 24.6152C24.6485 24.869 24.808 25.0993 25.0092 25.2925C25.3045 25.5992 25.6893 25.8111 26.112 25.9C26.5347 25.9888 26.9753 25.9503 27.3749 25.7896C27.7745 25.629 28.1141 25.3538 28.3482 25.0008C28.5824 24.6479 28.7 24.2339 28.6854 23.8144C28.6854 23.2674 28.4615 22.7428 28.063 22.356C27.6645 21.9692 27.124 21.7519 26.5604 21.7519H24.3788Z" fill="#0B0B0B" stroke="#0B0B0B" stroke-width="0.4"/>
<path d="M56.52 26.11V33H52V11.7H56.43V13.12C57.6933 11.9222 59.3691 11.2562 61.11 11.26C65.54 11.26 68.87 14.72 68.87 19.5C68.87 24.28 65.57 27.9 61.17 27.9C59.4494 27.9132 57.7877 27.2735 56.52 26.11ZM60.52 23.67C61.047 23.6635 61.5675 23.5529 62.0517 23.3446C62.5358 23.1363 62.974 22.8343 63.341 22.4561C63.7081 22.0779 63.9968 21.6309 64.1905 21.1407C64.3843 20.6506 64.4793 20.127 64.47 19.6C64.4889 19.0684 64.4 18.5385 64.2086 18.0422C64.0172 17.5459 63.7273 17.0935 63.3563 16.7122C62.9853 16.331 62.541 16.0288 62.0501 15.8239C61.5592 15.619 61.0319 15.5156 60.5 15.52C59.9636 15.5042 59.4297 15.5995 58.9319 15.8C58.4341 16.0005 57.9832 16.3019 57.6075 16.6851C57.2318 17.0683 56.9395 17.5251 56.7489 18.0267C56.5583 18.5284 56.4736 19.064 56.5 19.6C56.4823 20.1334 56.5732 20.6647 56.767 21.1619C56.9609 21.6591 57.2537 22.1117 57.6278 22.4922C58.0018 22.8728 58.4493 23.1735 58.943 23.3759C59.4367 23.5784 59.9664 23.6784 60.5 23.67H60.52Z" fill="#C1C2D3"/>
<path d="M73.08 11.7L76.61 20.85L80.1 11.7H85L76 33H71.37L74.3 26.14L68.3 11.7H73.08Z" fill="#C1C2D3"/>
<path d="M90.3 27.45H85.78V5H90.3V27.45Z" fill="#C1C2D3"/>
<path d="M91.81 19.5599C91.8021 17.9004 92.2871 16.2759 93.2035 14.8923C94.1199 13.5088 95.4265 12.4285 96.9576 11.7884C98.4887 11.1483 100.175 10.9772 101.804 11.2968C103.432 11.6164 104.929 12.4124 106.105 13.5837C107.28 14.7551 108.082 16.2491 108.407 17.8764C108.733 19.5037 108.568 21.191 107.933 22.7244C107.298 24.2578 106.223 25.5683 104.843 26.4896C103.462 27.411 101.84 27.9019 100.18 27.8999C99.0793 27.9146 97.9868 27.7092 96.9666 27.2956C95.9464 26.8821 95.0192 26.2688 94.2394 25.4918C93.4596 24.7148 92.843 23.7898 92.4258 22.7711C92.0086 21.7524 91.7993 20.6606 91.81 19.5599ZM100.18 23.7299C100.72 23.7304 101.254 23.6216 101.751 23.41C102.248 23.1984 102.697 22.8885 103.07 22.4989C103.444 22.1092 103.735 21.648 103.926 21.1429C104.116 20.6378 104.203 20.0993 104.18 19.5599C104.261 18.9927 104.219 18.4147 104.057 17.8651C103.895 17.3155 103.617 16.8071 103.241 16.3743C102.866 15.9415 102.402 15.5944 101.881 15.3566C101.359 15.1187 100.793 14.9956 100.22 14.9956C99.6471 14.9956 99.0808 15.1187 98.5595 15.3566C98.0382 15.5944 97.5742 15.9415 97.1987 16.3743C96.8232 16.8071 96.5451 17.3155 96.3831 17.8651C96.2212 18.4147 96.1792 18.9927 96.26 19.5599C96.2373 20.0926 96.3213 20.6246 96.5071 21.1244C96.6929 21.6242 96.9767 22.0818 97.3419 22.4703C97.7072 22.8589 98.1464 23.1704 98.6338 23.3867C99.1212 23.603 99.6469 23.7197 100.18 23.7299Z" fill="#C1C2D3"/>
<path d="M108.72 11.7001H111.57V7.6001H116.06V11.7001H120.06V15.5901H116.06V21.4901C116.019 21.7643 116.043 22.0442 116.128 22.3079C116.213 22.5716 116.359 22.8121 116.552 23.0105C116.746 23.2089 116.983 23.3599 117.244 23.4518C117.506 23.5437 117.785 23.5739 118.06 23.5401H120.06V27.4501H117.46C113.61 27.4501 111.59 25.6601 111.59 21.8101V15.5901H108.72V11.7001Z" fill="#C1C2D3"/>
<path d="M120.52 19.72C120.507 17.4981 121.373 15.3612 122.93 13.776C124.487 12.1909 126.608 11.2863 128.83 11.26C129.856 11.2356 130.876 11.4187 131.83 11.7983C132.783 12.1778 133.65 12.7461 134.378 13.4689C135.107 14.1917 135.682 15.0542 136.069 16.0047C136.455 16.9551 136.646 17.9739 136.63 19C136.63 19.6023 136.587 20.2039 136.5 20.8H124.92C125.065 21.7538 125.549 22.6232 126.284 23.248C127.019 23.8728 127.955 24.2109 128.92 24.2C129.538 24.2362 130.153 24.0883 130.687 23.775C131.221 23.4617 131.65 22.9971 131.92 22.44H136.38C135.64 25.44 132.78 27.95 128.58 27.95C127.505 27.9585 126.439 27.7501 125.446 27.3374C124.453 26.9246 123.553 26.316 122.801 25.5477C122.049 24.7795 121.459 23.8675 121.067 22.8662C120.675 21.8648 120.489 20.7948 120.52 19.72ZM132 17.54C131.893 16.7784 131.504 16.085 130.909 15.5977C130.314 15.1104 129.558 14.8648 128.79 14.91C127.98 14.901 127.189 15.1515 126.533 15.6248C125.876 16.0981 125.388 16.7692 125.14 17.54H132Z" fill="#C1C2D3"/>
</svg>
